<?xml version="1.0" encoding="utf-8"?>
<!-- Generator: Adobe Illustrator 16.0.4, SVG Export Plug-In . SVG Version: 6.00 Build 0)  -->
<!DOCTYPE svg PUBLIC "-//W3C//DTD SVG 1.1//EN" "http://www.w3.org/Graphics/SVG/1.1/DTD/svg11.dtd">
<svg version="1.1" id="Layer_1" xmlns="http://www.w3.org/2000/svg" xmlns:xlink="http://www.w3.org/1999/xlink" x="0px" y="0px"
	 width="1008px" height="792px" viewBox="0 0 1008 792" enable-background="new 0 0 1008 792" xml:space="preserve">
<path d="M569.068,603.9c-10.625,92.948-88.963,164.655-184.573,164.655c-102.242,0-185.897-83.655-185.897-185.897
	c0-53.113,22.572-100.918,57.098-134.114c-18.587-39.835-30.541-84.979-30.541-131.459c0-160.671,131.46-292.125,292.123-292.125
	c160.666,0,292.125,131.459,292.125,292.125C809.408,460.492,705.836,579.998,569.068,603.9z M769.574,317.085
	c0-139.423-112.867-252.29-252.289-252.29c-139.423,0-252.29,112.866-252.29,252.29c0,38.505,9.294,74.361,23.902,106.227
	c27.888-17.263,61.083-26.557,95.604-26.557c96.934,0,175.272,73.031,184.573,167.31
	C683.264,540.162,769.574,437.92,769.574,317.085z"/>
<text transform="matrix(1 0 0 1 329.2607 413.7559)" font-family="'HelvNeueBoldforIBM'" font-size="250">VIS</text>
<text transform="matrix(1 0 0 1 231.2822 656.7559)" fill="#FFFFFF" font-family="'HelvNeueBoldforIBM'" font-size="180">HCI</text>
</svg>
